<?xml version="1.0" standalone="no"?>
<!DOCTYPE svg PUBLIC "-//W3C//DTD SVG 20010904//EN"
 "http://www.w3.org/TR/2001/REC-SVG-20010904/DTD/svg10.dtd">
<svg version="1.0" xmlns="http://www.w3.org/2000/svg"
 width="744.000000pt" height="1052.000000pt" viewBox="0 0 744.000000 1052.000000"
 preserveAspectRatio="xMidYMid meet">

<g transform="translate(0.000000,1052.000000) scale(0.100000,-0.100000)" stroke="none">
<path fill="#FFFFFF" d="M4091 8163 c-5 -21 -13 -55 -17 -75 -4 -27 -11 -38 -24 -38 -23 0
-45 -34 -65 -104 -15 -52 -18 -56 -41 -50 -21 5 -26 1 -39 -30 -8 -19 -15 -51
-15 -70 0 -25 -5 -35 -19 -39 -33 -8 -45 -77 -31 -170 12 -75 12 -79 -9 -98
-11 -11 -21 -21 -21 -22 0 -1 -6 -42 -12 -92 -7 -49 -13 -173 -14 -275 0 -102
-7 -221 -14 -265 -16 -97 1 -508 25 -619 27 -127 74 -233 131 -296 28 -31 36
-49 41 -92 l5 -53 -146 -150 c-138 -142 -145 -147 -122 -99 58 119 57 231 -4
565 -34 187 -54 407 -45 490 6 48 4 59 -10 67 -16 8 -16 15 -5 61 13 56 9 81
-14 81 -23 0 -28 32 -16 105 8 48 8 71 0 80 -8 10 -8 30 0 73 12 67 6 92 -21
92 -17 0 -19 8 -19 70 0 59 -3 72 -20 82 -16 10 -20 24 -20 64 0 35 -5 56 -16
65 -9 7 -23 30 -31 51 -8 21 -23 44 -32 51 -10 6 -23 27 -29 45 -11 33 -120
162 -136 162 -5 0 -31 14 -57 31 -53 34 -69 32 -62 -5 3 -14 -4 -44 -16 -69
-12 -24 -21 -51 -21 -60 0 -10 -11 -27 -25 -39 -22 -19 -25 -30 -25 -85 0 -63
0 -63 -29 -63 -25 0 -30 -5 -35 -34 -4 -19 -2 -56 4 -82 11 -49 5 -64 -34 -77
-7 -2 -10 -33 -9 -85 1 -75 0 -82 -18 -82 -16 0 -19 -7 -19 -42 1 -24 7 -60
14 -80 13 -36 12 -38 -6 -38 -19 0 -20 -4 -14 -52 4 -28 16 -69 26 -91 18 -36
18 -41 4 -52 -22 -16 -20 -74 5 -123 14 -28 17 -43 10 -48 -17 -10 -3 -100 21
-141 24 -41 24 -43 5 -43 -26 0 -17 -43 31 -154 31 -73 58 -161 85 -283 53
-232 83 -339 120 -430 40 -94 111 -175 177 -199 26 -10 48 -18 50 -19 14 -10
-46 -87 -200 -258 -101 -111 -210 -233 -243 -270 -33 -38 -61 -64 -63 -58 -2
5 17 29 43 52 100 92 185 259 185 363 0 22 -16 108 -35 190 -19 82 -35 165
-35 184 0 20 -8 44 -17 55 -15 16 -19 45 -23 176 -5 152 -6 158 -32 189 -31
37 -68 180 -68 264 0 60 -18 95 -53 100 -20 3 -22 9 -25 71 -3 61 -6 69 -32
89 -24 18 -30 29 -30 60 0 33 -5 41 -34 59 -31 18 -35 26 -42 77 -9 74 -19 92
-52 92 -23 0 -29 6 -42 47 -10 31 -23 52 -39 60 -15 7 -31 30 -42 60 -21 53
-50 83 -83 83 -13 0 -36 17 -59 44 -38 46 -133 99 -197 111 l-35 6 -1 -53 c0
-29 -6 -75 -13 -103 -16 -63 -16 -75 -7 -102 6 -19 4 -23 -13 -23 -30 0 -36
-38 -19 -131 12 -66 12 -83 2 -97 -19 -24 -17 -53 7 -122 16 -48 18 -64 9 -75
-9 -11 -9 -22 -1 -46 6 -18 11 -55 11 -82 0 -34 6 -57 18 -70 9 -10 18 -35 19
-56 0 -20 17 -72 37 -116 36 -81 44 -119 26 -130 -17 -10 -11 -43 17 -98 14
-29 28 -64 29 -80 6 -48 256 -643 336 -799 58 -114 137 -201 200 -220 l40 -12
-7 -45 c-4 -25 -12 -54 -17 -65 -11 -19 -224 -265 -407 -468 -58 -64 -109
-114 -112 -110 -4 4 -9 23 -13 43 -6 32 -2 42 30 80 45 54 80 123 98 194 35
130 29 379 -14 625 -11 63 -25 169 -30 235 -6 82 -13 123 -23 130 -8 5 -17 39
-21 75 -4 36 -12 70 -17 76 -5 7 -14 38 -19 70 -6 33 -18 66 -30 79 -15 16
-20 35 -20 82 0 72 -15 120 -40 128 -17 6 -30 44 -30 92 0 15 -14 39 -34 59
-23 23 -38 51 -46 84 -15 63 -45 103 -71 95 -15 -5 -19 -1 -19 20 0 55 -47
135 -80 135 -9 0 -31 24 -50 53 -35 52 -70 71 -93 48 -7 -7 -26 4 -60 35 -28
25 -57 43 -66 42 -10 -2 -21 -23 -29 -58 -8 -29 -22 -65 -33 -78 -13 -17 -19
-41 -19 -73 0 -27 -4 -49 -9 -49 -24 0 -21 -66 5 -135 3 -8 -1 -12 -13 -12
-26 3 -28 -49 -5 -111 l20 -51 -22 -3 c-30 -4 -33 -64 -6 -125 18 -41 19 -48
5 -55 -20 -12 -19 -44 5 -97 11 -24 20 -54 20 -67 0 -14 11 -47 25 -74 17 -34
23 -58 19 -75 -4 -17 3 -44 22 -83 17 -36 27 -70 26 -92 -2 -21 15 -86 43
-165 26 -71 66 -200 91 -285 83 -293 168 -528 215 -596 49 -71 121 -122 189
-133 34 -6 35 -8 44 -65 l9 -59 -174 -171 c-144 -143 -174 -167 -177 -149 -2
12 12 48 30 80 33 58 33 59 32 188 l-1 130 -53 150 c-42 121 -54 166 -58 233
-4 71 -8 87 -28 107 -23 23 -25 31 -28 133 -1 13 -8 29 -17 35 -11 9 -17 35
-21 93 -6 85 -19 124 -43 124 -9 0 -16 18 -20 58 -4 31 -15 71 -25 87 -10 17
-26 50 -36 75 -20 52 -53 96 -144 192 -72 77 -120 111 -143 102 -9 -3 -26 1
-39 10 -42 30 -52 22 -71 -63 -15 -69 -21 -80 -42 -85 -31 -8 -40 -40 -31
-110 5 -50 5 -53 -17 -52 -21 1 -22 -3 -22 -69 0 -38 4 -80 8 -92 6 -18 5 -23
-8 -23 -13 0 -15 -7 -10 -37 10 -67 26 -117 53 -172 36 -73 36 -71 17 -71 -24
0 -14 -45 31 -140 20 -43 31 -76 25 -78 -6 -2 -11 -8 -11 -13 0 -18 240 -471
287 -543 90 -135 198 -223 299 -242 64 -12 72 -48 21 -105 -18 -20 -79 -92
-136 -160 -121 -144 -141 -165 -117 -128 51 81 37 230 -44 471 -33 97 -60 184
-60 194 0 10 -11 29 -24 43 -13 15 -32 48 -42 75 -11 30 -28 55 -46 66 -15 9
-41 35 -58 58 -30 42 -80 67 -88 44 -7 -21 -48 -13 -72 13 -33 35 -60 33 -60
-4 0 -22 -6 -30 -24 -35 -21 -5 -26 -14 -31 -60 -5 -41 -12 -55 -26 -59 -16
-4 -19 -15 -19 -67 0 -34 5 -71 11 -82 8 -16 8 -22 -2 -28 -10 -7 -8 -18 6
-57 10 -26 20 -67 20 -89 3 -67 84 -203 180 -300 88 -90 208 -173 285 -199 27
-9 53 -21 56 -27 3 -5 -6 -26 -21 -46 -75 -102 -314 -470 -374 -576 -114 -200
-125 -244 -70 -266 36 -15 41 -10 58 50 32 110 221 436 400 689 78 109 95 117
106 49 14 -81 106 -228 206 -328 97 -97 264 -202 316 -198 16 1 47 -8 70 -20
23 -12 57 -21 75 -21 18 1 59 -4 92 -10 65 -14 106 -8 106 14 0 16 23 23 85
27 33 3 41 7 43 25 2 16 10 23 25 23 36 0 51 14 32 30 -9 8 -23 27 -32 43 -14
28 -13 32 8 60 l22 31 -39 33 c-21 18 -47 35 -56 39 -11 3 -18 15 -18 30 0 20
-11 30 -65 56 -36 18 -68 40 -71 50 -3 10 -23 22 -47 29 -23 6 -109 39 -192
74 -82 35 -177 71 -210 81 -78 21 -262 30 -306 15 -52 -18 -57 1 -13 56 119
148 238 283 249 283 25 0 62 -44 74 -86 24 -88 127 -194 301 -311 153 -103
475 -284 494 -279 11 3 55 -12 100 -34 98 -47 133 -56 138 -35 2 12 13 9 48
-15 75 -50 219 -90 239 -66 10 11 18 11 53 -1 22 -8 64 -13 92 -11 44 3 51 6
54 26 2 12 5 22 6 22 1 0 27 -5 58 -10 66 -12 108 -1 108 29 0 22 6 25 108 42
39 7 72 14 72 16 0 2 -7 15 -16 28 -10 16 -14 36 -11 54 5 23 -1 34 -34 67
-23 21 -45 49 -50 61 -4 12 -35 44 -69 69 -33 26 -60 51 -60 55 0 5 -28 23
-62 40 -34 17 -73 40 -88 50 -14 11 -53 25 -88 31 -49 9 -62 15 -62 30 0 23
-31 35 -129 50 -42 6 -87 19 -101 28 -14 10 -57 23 -95 29 -57 10 -73 16 -80
34 -8 17 -20 23 -55 24 -90 5 -164 25 -291 79 -150 63 -216 82 -314 90 -87 8
-183 -14 -243 -56 -23 -17 -47 -30 -52 -30 -34 0 -1 42 156 200 182 185 190
190 249 174 12 -3 29 -27 44 -61 41 -93 102 -143 268 -224 81 -39 232 -104
337 -145 105 -42 243 -100 308 -130 64 -30 133 -58 154 -61 21 -4 63 -19 92
-35 30 -15 62 -28 72 -28 11 0 40 -11 66 -25 26 -14 53 -25 61 -25 7 0 36 -11
63 -25 51 -26 94 -32 105 -16 3 6 28 -1 58 -14 28 -14 61 -25 72 -25 27 0 49
15 41 29 -10 15 -1 14 42 -8 59 -29 92 -34 112 -16 13 12 23 13 44 5 34 -12
93 -13 100 -1 3 5 23 7 45 4 24 -3 51 1 72 11 19 9 56 20 82 25 26 5 51 11 54
15 4 3 -10 30 -30 59 -41 60 -44 69 -22 87 14 12 13 17 -12 42 -15 17 -41 36
-56 44 -15 8 -27 20 -25 27 7 41 -36 79 -105 92 -33 6 -37 10 -35 34 3 23 -4
30 -69 61 -41 19 -74 42 -76 52 -6 20 -80 57 -115 58 -15 0 -26 9 -32 24 -7
19 -23 29 -61 40 -29 9 -65 16 -79 16 -15 0 -38 9 -51 21 -29 25 -62 39 -93
39 -13 0 -33 8 -45 19 -13 11 -45 21 -81 25 -43 5 -60 11 -60 22 0 18 -40 34
-86 34 -19 0 -121 22 -227 49 -402 103 -616 115 -771 43 -34 -16 -78 -44 -99
-61 -24 -22 -44 -31 -61 -29 -21 3 5 35 233 292 268 302 305 334 317 278 19
-87 63 -141 168 -206 96 -60 205 -104 426 -171 135 -41 223 -75 325 -126 129
-63 195 -84 195 -59 0 5 23 -3 52 -18 35 -18 69 -27 103 -28 29 0 69 -10 95
-22 49 -23 109 -29 127 -11 8 8 17 7 34 -5 27 -17 148 -48 160 -40 5 2 6 11 3
19 -5 13 -1 13 30 0 19 -8 57 -16 83 -18 42 -2 48 1 51 19 3 21 4 21 64 7 79
-18 110 -14 123 15 9 21 14 23 50 16 22 -4 65 -8 95 -8 54 -1 55 0 52 26 l-3
27 76 -2 c67 -2 78 1 93 19 11 13 34 24 62 28 25 4 55 14 67 21 16 11 29 12
48 5 42 -16 48 -1 15 40 -17 21 -28 45 -24 53 3 10 -11 28 -40 52 -24 21 -47
48 -50 61 -4 14 -23 30 -53 45 -27 13 -60 35 -75 51 -14 15 -32 28 -40 28 -8
0 -24 11 -36 24 -12 15 -37 27 -59 31 -72 12 -83 15 -83 29 0 18 -52 36 -106
36 -32 0 -44 4 -44 15 0 28 -44 46 -111 45 -35 0 -107 2 -159 6 -86 5 -97 8
-105 27 -9 20 -17 22 -77 21 -49 -2 -68 2 -72 12 -3 8 -20 14 -41 14 -97 0
-324 35 -465 72 -406 107 -516 123 -627 95 -90 -24 -156 -60 -228 -127 -48
-44 -68 -57 -84 -53 -18 5 -19 8 -9 21 44 55 403 450 421 464 12 9 37 19 55
23 27 6 32 4 32 -12 0 -30 47 -95 96 -132 24 -18 83 -50 131 -71 111 -47 804
-277 858 -284 22 -3 64 -14 93 -26 64 -25 81 -25 98 -2 12 16 19 15 121 -20
71 -24 112 -33 119 -27 8 6 24 2 48 -12 30 -17 46 -20 85 -15 27 4 61 1 81 -5
28 -10 35 -10 46 6 12 16 16 16 60 1 60 -20 122 -21 144 -1 14 13 29 14 88 5
93 -13 132 -5 132 26 0 20 4 23 28 18 28 -5 124 16 162 36 13 7 37 9 57 5 34
-6 35 -5 29 19 -12 50 -26 76 -46 88 -11 7 -20 22 -20 33 0 13 -18 32 -55 55
-43 28 -55 40 -55 61 0 34 -26 56 -88 74 -32 10 -53 22 -57 34 -6 20 -37 35
-93 46 -29 6 -33 10 -28 31 8 30 -11 40 -96 49 -53 6 -67 11 -71 26 -5 20 -44
39 -81 39 -13 0 -35 11 -50 25 -23 22 -36 25 -97 25 -62 0 -69 2 -69 20 0 29
-25 37 -145 44 -166 10 -194 16 -223 44 l-27 25 -166 -7 c-141 -5 -168 -4
-179 9 -9 10 -31 15 -72 15 -32 0 -120 10 -196 21 -82 13 -160 19 -194 16 -86
-8 -192 -63 -283 -148 -42 -39 -79 -68 -82 -65 -7 6 17 32 315 344 107 111
199 202 205 202 5 0 35 -24 66 -53 66 -63 166 -121 276 -160 140 -50 569 -119
705 -114 30 1 105 -6 165 -17 154 -26 359 -30 396 -9 25 15 32 15 89 -1 35
-10 81 -18 104 -18 46 -1 90 17 80 33 -4 6 12 8 43 4 27 -4 60 -2 77 4 23 9
27 16 22 35 -6 23 -3 25 47 31 71 10 121 31 114 49 -5 11 7 16 51 21 126 14
134 21 81 71 -17 16 -35 39 -40 51 -4 12 -28 35 -51 50 -24 15 -45 33 -47 38
-10 23 -62 62 -101 75 -23 8 -44 20 -47 26 -5 14 -74 39 -135 50 -20 3 -44 14
-53 24 -21 24 -61 32 -99 22 -23 -6 -34 -4 -48 10 -10 10 -31 18 -48 18 -19 0
-30 5 -30 14 0 33 -27 39 -100 22 -69 -15 -70 -15 -103 7 -29 20 -45 22 -123
21 -49 -1 -93 -4 -99 -5 -5 -2 -19 2 -31 8 -16 9 -44 8 -122 -5 -86 -13 -108
-14 -138 -3 -20 7 -50 10 -70 7 -18 -4 -42 -3 -51 3 -12 6 -49 4 -108 -6 -50
-8 -103 -12 -120 -8 -58 11 -81 4 -254 -81 -199 -96 -199 -99 -10 77 l106 98
53 -20 c87 -33 207 -28 382 16 196 50 487 171 501 209 4 9 17 16 29 16 31 0
53 16 53 36 0 11 15 22 40 31 47 16 85 50 85 75 0 11 7 18 19 18 43 0 82 22
88 50 3 19 15 32 33 40 42 18 72 49 65 70 -4 13 1 19 17 23 29 8 88 61 88 80
0 8 -10 18 -22 24 l-23 10 24 12 c40 22 101 83 101 102 0 10 -7 22 -16 27 -15
8 -13 14 14 48 42 53 50 90 23 99 -25 7 -25 13 -6 39 10 14 15 45 15 102 0 93
-7 101 -75 88 -28 -5 -49 -1 -85 16 -43 20 -50 21 -76 7 -26 -13 -30 -13 -56
6 -24 18 -32 19 -66 9 -22 -7 -53 -9 -69 -6 -20 4 -43 -1 -71 -15 -26 -13 -51
-19 -69 -15 -21 4 -40 -3 -75 -26 -39 -26 -51 -29 -68 -20 -25 13 -45 4 -113
-53 -45 -37 -50 -39 -74 -26 -24 13 -27 12 -79 -44 -46 -49 -57 -56 -73 -47
-28 14 -26 15 -61 -45 -23 -41 -37 -55 -54 -55 -26 0 -62 -36 -119 -118 -23
-33 -74 -103 -114 -155 -135 -176 -192 -318 -193 -476 l-1 -76 -184 -175
c-101 -96 -189 -176 -194 -178 -6 -2 -11 5 -11 15 0 10 25 43 56 73 60 59 135
160 228 307 48 76 56 95 47 111 -8 15 -4 43 20 121 16 56 27 110 24 121 -3 10
0 38 6 60 10 33 10 46 1 61 -12 19 -6 49 48 221 6 19 4 30 -5 38 -12 10 -12
18 2 51 8 21 12 46 9 55 -3 8 1 38 10 65 16 49 16 51 -5 79 l-21 29 25 78 26
78 -21 14 c-13 9 -20 24 -20 44 0 17 -7 38 -15 47 -12 14 -12 21 0 55 19 54
18 69 -5 90 -16 14 -20 31 -20 75 0 57 -15 120 -29 120 -4 0 -13 25 -20 55 -8
36 -22 65 -41 83 -16 16 -35 44 -43 63 -16 39 -131 159 -152 159 -8 0 -19 -17
-24 -37z m129 -161 c10 -32 21 -48 35 -51 27 -5 33 -17 41 -83 4 -37 13 -63
25 -74 16 -14 19 -32 19 -95 0 -67 3 -81 19 -91 19 -12 19 -12 0 -50 -24 -48
-24 -65 1 -78 15 -8 19 -17 15 -30 -3 -11 1 -35 11 -55 15 -32 15 -38 0 -75
-21 -53 -20 -83 3 -111 19 -23 19 -24 0 -73 -11 -27 -19 -61 -17 -75 1 -14 -2
-43 -6 -64 -5 -23 -4 -42 2 -50 8 -9 2 -40 -20 -111 -27 -83 -30 -103 -20
-128 8 -23 7 -38 -4 -71 -8 -23 -12 -52 -9 -64 3 -13 -7 -65 -21 -115 -15 -51
-26 -106 -26 -123 1 -36 -162 -286 -227 -350 -40 -38 -41 -38 -41 -14 0 48 31
277 80 589 56 354 76 520 85 695 3 66 13 228 22 360 14 222 13 373 -3 435 -12
46 20 4 36 -48z m-71 -44 c4 -45 4 -135 0 -198 -4 -63 -15 -239 -24 -390 -18
-319 -30 -422 -90 -807 -46 -285 -75 -511 -75 -570 0 -18 -4 -33 -9 -33 -14 0
-79 163 -96 243 -23 111 -40 535 -24 622 8 44 12 138 10 256 -2 155 0 187 12
198 12 10 14 27 10 86 -6 73 -5 74 21 86 l27 13 -7 117 -7 118 26 6 c24 6 26
12 29 68 3 59 4 62 27 59 31 -3 48 12 56 51 15 77 25 95 56 101 23 4 31 12 36
36 9 45 14 31 22 -62z m-875 -274 c9 -3 16 -16 16 -28 0 -30 10 -41 45 -53 17
-5 31 -18 33 -29 11 -62 24 -93 42 -99 15 -5 20 -15 20 -45 0 -30 5 -42 21
-50 18 -10 20 -17 14 -61 -7 -48 -6 -50 22 -60 29 -9 29 -11 25 -69 -4 -51 -2
-60 17 -72 24 -14 26 -43 10 -102 -8 -27 -8 -41 0 -49 6 -6 11 -46 11 -88 0
-59 4 -82 18 -99 15 -19 17 -29 8 -71 -7 -34 -6 -55 1 -71 7 -13 16 -99 22
-193 7 -105 24 -246 46 -370 56 -319 56 -400 0 -522 -30 -65 -135 -181 -146
-160 -19 34 -81 471 -119 837 -22 223 -39 432 -75 950 -14 201 -32 397 -40
435 -8 39 -15 71 -15 73 0 4 7 2 24 -4z m-54 -31 c0 -5 4 -35 10 -68 5 -33 23
-253 40 -490 61 -859 109 -1314 171 -1628 19 -94 20 -110 8 -123 -23 -23 -81
24 -123 99 -51 93 -81 185 -131 409 -56 255 -60 267 -101 355 -47 101 -50 119
-25 126 21 5 20 6 -9 69 -32 67 -38 106 -18 126 8 8 5 26 -16 72 -28 63 -28
80 5 80 25 0 24 21 -6 78 -13 26 -27 61 -31 78 -5 25 -2 32 20 42 l25 11 -19
43 c-11 24 -20 57 -20 74 0 25 4 30 23 30 16 -1 22 4 20 19 -1 11 -5 48 -9 82
-6 63 -6 63 25 80 35 19 34 10 15 133 l-7 40 38 0 38 0 -7 58 c-6 60 1 85 25
80 8 -2 15 7 16 22 6 46 26 110 34 110 5 0 9 -3 9 -7z m2465 -344 c14 -21 50
-27 83 -13 29 12 38 12 62 -1 16 -8 37 -15 46 -15 23 0 -17 -42 -146 -154
-204 -178 -441 -345 -850 -596 -196 -121 -354 -232 -389 -274 -26 -31 -34 -18
-28 47 12 119 74 259 177 393 36 47 90 120 121 162 45 63 61 78 85 80 23 2 37
14 63 52 21 30 42 50 53 50 10 0 41 20 67 45 40 37 54 45 74 40 19 -5 36 3 82
41 49 39 61 45 76 36 23 -14 53 -4 97 33 26 22 39 26 64 21 23 -5 42 0 74 19
37 22 47 24 63 13 17 -10 27 -9 63 9 51 26 55 26 63 12z m225 -159 l-21 -42
22 -24 c22 -24 22 -24 3 -46 -10 -12 -30 -32 -44 -44 l-25 -22 22 -24 23 -24
-28 -26 c-15 -13 -44 -35 -64 -47 -45 -27 -47 -35 -12 -58 l26 -17 -22 -18
c-12 -10 -40 -23 -61 -29 -40 -12 -48 -26 -27 -47 16 -16 3 -28 -47 -45 -34
-12 -40 -18 -40 -43 0 -31 -20 -41 -84 -43 -32 -1 -33 -3 -28 -31 6 -25 2 -32
-21 -44 -15 -8 -46 -19 -69 -25 -35 -10 -42 -16 -40 -33 1 -15 -4 -23 -18 -25
-53 -9 -65 -15 -65 -29 0 -35 -320 -163 -522 -208 -132 -30 -222 -33 -276 -10
l-37 16 50 45 c109 100 190 157 435 308 430 265 661 430 880 629 95 85 105 92
108 71 2 -13 -6 -42 -18 -65z m-3582 -100 c18 -16 38 -30 46 -30 8 0 32 -21
54 -47 28 -34 47 -48 67 -48 24 -1 31 -9 47 -53 11 -30 31 -60 47 -72 18 -12
31 -33 35 -53 6 -35 27 -59 59 -70 9 -4 17 -14 17 -24 1 -37 30 -98 55 -116
19 -14 25 -27 25 -57 0 -40 20 -70 46 -70 10 0 14 -14 14 -56 0 -65 10 -89 49
-108 26 -14 29 -21 35 -88 10 -104 52 -260 75 -279 16 -13 19 -34 23 -165 3
-94 9 -158 17 -173 7 -13 31 -103 53 -200 48 -211 47 -256 -5 -364 -35 -75
-127 -201 -127 -176 0 43 -33 283 -55 403 -53 285 -183 752 -338 1211 -146
431 -197 557 -255 633 -31 40 -24 41 16 2z m12 -128 c44 -105 177 -483 254
-727 190 -593 290 -1024 312 -1337 l7 -98 -28 0 c-40 0 -101 66 -152 165 -40
79 -198 444 -288 665 -25 63 -44 123 -41 133 2 10 -8 39 -24 65 -34 55 -46 97
-31 106 20 13 11 67 -25 144 -23 51 -34 86 -30 103 3 17 -3 38 -20 62 -18 27
-24 49 -24 87 0 28 -5 60 -11 71 -8 16 -7 23 7 33 16 12 15 17 -10 79 -30 75
-31 89 -12 120 13 19 13 33 -1 105 -16 89 -13 112 14 112 16 0 18 11 20 77 2
87 18 139 38 123 7 -6 27 -45 45 -88z m-474 -560 c24 3 30 -2 39 -28 15 -45
34 -64 65 -64 31 0 32 -3 45 -102 7 -52 24 -73 55 -63 15 5 22 0 30 -20 5 -14
10 -40 10 -56 0 -43 17 -69 44 -69 21 0 23 -6 32 -82 9 -80 10 -83 36 -86 l27
-3 3 -97 c3 -90 5 -98 26 -107 19 -9 22 -17 22 -71 0 -43 4 -63 14 -67 9 -4
15 -27 18 -69 3 -47 10 -72 26 -93 16 -20 22 -41 22 -79 0 -28 11 -123 25
-211 52 -326 55 -516 11 -660 -16 -53 -70 -145 -84 -145 -16 0 -91 289 -147
560 -30 146 -77 375 -104 510 -28 135 -78 337 -110 450 -33 113 -79 288 -101
390 -23 102 -52 211 -64 242 l-23 56 27 -19 c16 -12 38 -19 56 -17z m-96 -35
c0 -23 113 -478 155 -622 30 -104 77 -300 105 -435 28 -135 76 -364 106 -510
63 -304 73 -344 120 -496 19 -62 34 -115 34 -118 0 -3 -11 -6 -23 -6 -24 0
-88 41 -119 76 -45 52 -153 339 -218 579 -22 83 -64 222 -93 309 -37 115 -49
160 -39 163 19 7 14 24 -23 81 -28 45 -32 58 -23 76 8 18 5 34 -17 75 -15 31
-23 60 -20 71 4 12 -4 37 -19 63 -31 53 -32 63 -6 70 27 7 25 25 -10 92 -35
66 -37 85 -11 85 39 0 44 24 17 93 -31 77 -31 77 -6 77 29 0 35 24 16 70 -21
53 -20 77 4 83 17 4 18 9 10 38 -17 59 -13 77 18 82 15 2 30 5 35 6 4 0 7 0 7
-2z m3205 -340 c33 0 89 1 125 2 36 2 103 0 150 -3 47 -3 100 -1 119 4 27 7
38 5 62 -12 24 -18 37 -20 92 -15 48 4 69 2 83 -8 11 -8 29 -15 40 -15 12 0
29 -11 38 -25 18 -27 47 -32 91 -15 20 8 29 6 44 -9 13 -13 41 -22 86 -26 53
-6 72 -13 88 -31 11 -13 26 -24 32 -24 6 0 35 -7 63 -15 46 -14 52 -19 52 -43
0 -24 7 -31 50 -49 43 -19 71 -45 59 -58 -3 -2 -35 5 -73 16 -90 24 -331 64
-526 86 -136 16 -241 18 -840 16 l-685 -3 40 35 c22 19 108 68 192 110 134 66
158 75 210 76 32 0 81 4 108 8 28 4 93 5 145 3 52 -3 122 -5 155 -5z m595
-273 c221 -18 424 -48 562 -80 111 -27 145 -44 84 -44 -47 0 -66 -9 -66 -30 0
-25 -7 -28 -85 -39 -72 -10 -86 -20 -77 -53 5 -20 2 -20 -61 -14 -65 7 -67 7
-77 -18 -12 -32 -21 -32 -140 -1 -94 25 -95 25 -110 5 -14 -18 -25 -19 -155
-16 -133 3 -290 24 -363 47 -24 8 -37 8 -45 0 -6 -6 -31 -11 -56 -11 -90 0
-486 71 -596 106 -77 25 -199 91 -231 126 l-29 31 155 -6 c85 -3 295 1 465 8
340 14 558 12 825 -11z m-4113 -332 c7 -4 20 -26 29 -47 18 -45 29 -55 60 -55
15 0 26 -12 40 -42 10 -24 28 -53 40 -64 13 -12 28 -41 34 -65 7 -24 18 -51
26 -60 7 -8 18 -46 23 -85 8 -55 15 -73 36 -89 23 -19 25 -27 25 -101 0 -67 3
-84 19 -98 14 -12 21 -38 26 -87 4 -41 14 -78 25 -91 9 -13 20 -48 23 -78 3
-30 29 -122 58 -205 53 -150 53 -150 53 -275 0 -99 -4 -133 -18 -164 l-17 -39
-76 138 c-131 238 -163 332 -302 870 -38 149 -85 340 -105 425 -20 85 -40 170
-45 188 -9 29 -8 32 12 32 12 0 27 -4 34 -8z m2725 -44 c158 -29 202 -33 320
-30 105 2 143 -1 160 -11 26 -16 167 -43 278 -53 65 -6 78 -10 101 -35 25 -26
33 -29 93 -29 51 0 66 -3 66 -15 0 -18 31 -35 66 -35 15 0 45 -12 66 -26 25
-17 57 -29 89 -32 41 -4 53 -9 61 -28 12 -25 64 -54 97 -54 12 0 25 -8 28 -17
9 -25 19 -30 86 -49 52 -15 57 -19 55 -42 -3 -21 7 -32 52 -63 34 -23 54 -43
52 -53 -1 -8 12 -29 30 -46 l33 -30 -75 34 c-70 32 -315 105 -473 141 -113 26
-1194 221 -1472 265 -143 23 -267 44 -275 47 -11 3 0 19 40 55 96 87 202 137
292 138 25 0 129 -15 230 -32z m-2669 -568 c143 -557 161 -610 293 -866 52
-100 94 -189 94 -198 0 -26 -50 -20 -101 12 -94 60 -177 184 -336 497 -53 105
-86 181 -85 199 0 16 -11 52 -25 79 -43 85 -54 124 -37 131 22 8 17 33 -18 94
-19 33 -27 57 -21 59 7 3 2 20 -13 46 -29 51 -31 83 -5 92 18 6 19 9 6 44 -13
37 -18 76 -16 114 1 11 9 17 26 17 24 0 25 1 22 78 -2 76 -2 77 24 80 23 3 28
9 33 44 4 23 10 46 13 51 3 6 21 -55 38 -134 18 -79 67 -277 108 -439z m2027
556 c0 -2 -8 -10 -17 -17 -16 -13 -17 -12 -4 4 13 16 21 21 21 13z m346 -237
c282 -45 940 -161 1274 -225 279 -53 588 -133 661 -170 l53 -26 -34 -19 c-19
-10 -52 -18 -72 -19 -21 0 -38 -5 -38 -11 0 -7 -14 -8 -40 -4 -35 6 -40 4 -40
-13 0 -36 -21 -43 -106 -32 -77 10 -114 7 -114 -10 0 -19 -36 -18 -107 5 -56
18 -79 21 -84 13 -13 -21 -149 -17 -187 5 -22 13 -42 17 -65 13 -23 -4 -57 3
-115 24 -94 34 -118 37 -143 14 -16 -14 -22 -13 -79 16 -43 22 -70 30 -87 25
-17 -4 -148 35 -421 126 -218 72 -414 140 -434 150 -79 41 -138 110 -138 163
0 29 -37 32 316 -25z m-211 -352 c55 -13 179 -44 275 -69 102 -27 234 -53 315
-63 77 -10 149 -24 160 -31 11 -8 44 -14 74 -14 38 0 60 -5 74 -17 13 -13 41
-19 95 -22 44 -2 86 -9 97 -17 15 -11 36 -13 78 -8 52 6 60 4 73 -14 11 -15
30 -22 79 -27 52 -6 65 -11 65 -24 0 -29 22 -41 77 -41 35 0 52 -4 51 -12 -4
-15 40 -38 75 -38 20 0 27 -5 27 -19 0 -14 11 -23 38 -31 85 -26 93 -31 90
-59 -3 -22 3 -29 40 -45 32 -15 42 -25 42 -43 0 -26 0 -26 -36 -13 -57 22
-213 51 -594 110 -914 142 -1503 257 -1717 336 -53 19 -49 30 31 90 62 48 123
78 186 94 54 14 194 3 305 -23z m-467 -216 c218 -73 780 -184 1492 -296 632
-99 729 -115 758 -126 l27 -11 -24 -19 c-13 -10 -36 -19 -51 -19 -54 0 -91
-12 -85 -27 4 -13 -7 -15 -72 -12 l-78 4 -3 -32 c-4 -38 -14 -40 -88 -18 -68
21 -83 19 -96 -11 -12 -25 -15 -26 -73 -20 -33 3 -75 9 -92 12 -30 6 -33 4
-33 -20 0 -24 -3 -26 -27 -20 -16 3 -47 17 -71 31 -34 20 -46 22 -58 13 -8 -7
-14 -19 -14 -27 0 -19 -41 -10 -85 17 -72 47 -93 54 -110 40 -9 -7 -14 -19
-11 -27 8 -21 -15 -15 -69 17 -51 31 -89 38 -100 20 -9 -15 -39 -4 -106 36
-66 39 -75 41 -84 14 -3 -11 -9 -20 -13 -20 -4 0 -45 23 -92 50 -63 37 -131
65 -260 106 -352 111 -444 149 -540 219 -51 38 -71 62 -87 111 -8 23 -8 35 0
43 15 15 14 16 145 -28z m-1845 -407 c12 -21 33 -43 45 -49 16 -7 28 -27 39
-65 9 -30 22 -59 29 -65 18 -14 113 -275 130 -358 16 -73 21 -237 9 -257 -4
-6 -11 -8 -15 -3 -14 14 -86 183 -217 508 -69 171 -127 315 -129 320 -3 6 14
10 42 10 42 -1 47 -4 67 -41z m-88 -121 c64 -162 202 -500 259 -632 l36 -84
-31 7 c-43 8 -153 92 -230 174 -79 84 -153 212 -152 261 1 18 -8 54 -19 80
-18 42 -18 46 -2 58 16 11 16 14 0 38 -9 13 -19 45 -22 69 -6 39 -3 47 20 67
21 18 26 32 26 66 0 41 2 43 28 43 28 0 31 -6 87 -147z m1816 51 c46 -8 163
-35 259 -59 96 -24 194 -47 218 -50 24 -4 46 -13 48 -20 7 -17 58 -35 100 -35
21 0 42 -8 54 -20 13 -13 33 -20 58 -20 43 0 55 -6 70 -36 10 -18 24 -23 84
-29 99 -9 106 -12 110 -43 3 -28 1 -27 120 -47 32 -5 36 -9 35 -32 -2 -29 3
-32 91 -54 41 -9 43 -12 37 -38 -8 -35 5 -46 78 -65 74 -19 74 -20 69 -56 -4
-28 -1 -32 40 -50 57 -25 61 -30 41 -52 -15 -17 -15 -20 5 -47 l22 -30 -63 29
c-34 15 -138 52 -232 83 -93 30 -244 85 -334 121 -91 37 -242 91 -335 121
-442 139 -1007 315 -1060 330 l-60 18 25 20 c33 27 118 66 171 77 57 12 245 4
349 -16z m-251 -214 c317 -101 660 -208 829 -260 73 -23 212 -73 310 -112 97
-38 260 -98 362 -133 188 -64 260 -94 227 -95 -10 0 -19 -4 -19 -10 -1 -5 -2
-14 -3 -19 -2 -19 -15 -21 -61 -9 -42 11 -48 11 -60 -5 -12 -17 -16 -17 -66 8
-49 26 -53 26 -65 10 -8 -10 -15 -23 -17 -28 -2 -7 -23 0 -49 16 -56 33 -94
35 -103 7 -9 -28 -22 -25 -82 15 -60 40 -79 43 -88 15 -8 -26 -12 -25 -59 10
-22 17 -50 30 -64 30 -13 0 -43 11 -67 25 -28 17 -51 24 -67 20 -17 -4 -34 3
-65 30 -40 34 -76 45 -88 25 -3 -5 -49 11 -103 37 -53 25 -182 79 -287 120
-207 80 -495 218 -544 258 -32 28 -64 75 -76 114 -7 22 -5 23 27 16 18 -4 143
-43 278 -85z m-295 -262 c39 -14 113 -44 165 -66 52 -21 118 -44 147 -50 28
-6 69 -20 90 -31 21 -11 65 -25 98 -31 33 -6 65 -18 72 -27 14 -18 72 -32 135
-33 57 0 78 -8 72 -25 -7 -18 19 -31 96 -45 36 -7 70 -19 76 -26 6 -7 40 -24
75 -36 39 -14 64 -29 64 -38 0 -8 20 -25 45 -38 49 -26 80 -50 80 -64 0 -4 -8
-8 -17 -8 -15 0 -13 -4 7 -20 14 -11 30 -20 35 -20 6 0 21 -9 35 -20 29 -22
38 -95 10 -86 -8 2 -89 25 -180 51 -602 171 -1037 323 -1347 470 -84 39 -162
79 -174 87 l-22 14 33 24 c59 42 97 50 220 47 94 -3 128 -8 185 -29z m-195
-205 c258 -120 822 -316 1200 -418 212 -57 280 -78 285 -85 5 -8 -9 -11 -102
-25 -40 -6 -43 -8 -36 -32 l6 -26 -86 6 c-83 7 -86 6 -89 -15 -4 -32 -65 -36
-122 -9 -53 26 -62 26 -69 0 -7 -25 -35 -19 -83 17 -17 13 -42 23 -55 22 -13
-1 -46 13 -73 30 -57 36 -74 39 -91 15 -12 -16 -20 -13 -94 30 -49 29 -93 47
-112 47 -56 0 -500 273 -596 368 -55 53 -99 116 -109 156 l-6 27 78 -37 c44
-20 113 -52 154 -71z m-276 -213 c42 -11 132 -44 201 -74 68 -31 135 -58 148
-62 14 -3 24 -12 23 -21 -1 -11 21 -23 71 -40 65 -22 72 -27 68 -46 -5 -18 4
-28 50 -55 30 -18 55 -35 55 -38 0 -3 -7 -15 -15 -27 -11 -17 -12 -31 -6 -55
5 -18 6 -32 1 -32 -26 0 -204 71 -330 131 -170 82 -260 133 -429 243 l-124 80
29 13 c38 17 156 9 258 -17z m-134 -139 c166 -106 472 -261 608 -310 50 -18
92 -37 92 -41 0 -5 3 -15 6 -24 5 -12 -6 -16 -56 -22 -44 -5 -63 -12 -71 -25
-14 -27 -67 -24 -111 6 -42 29 -63 32 -72 10 -5 -14 -11 -13 -48 6 -23 12 -59
23 -81 25 -46 4 -135 56 -206 120 -89 80 -201 244 -226 333 -10 32 -8 31 165
-78z"/>
</g>
</svg>
